<svg width="1280" height="581" viewBox="0 0 1280 581" fill="none" xmlns="http://www.w3.org/2000/svg">
<path d="M57.5636 -18.423L55.5715 2.26589C55.3871 4.18153 53.198 5.17912 51.6313 4.06156L34.7102 -8.00813C33.1434 -9.12569 33.374 -11.5202 35.1252 -12.3183L54.0384 -20.9376C55.7896 -21.7356 57.7481 -20.3387 57.5636 -18.423Z" stroke="black" stroke-opacity="0.1"/>
<path d="M381.564 69.577L379.572 90.2659C379.387 92.1815 377.198 93.1791 375.631 92.0616L358.71 79.9919C357.143 78.8743 357.374 76.4798 359.125 75.6817L378.038 67.0624C379.79 66.2644 381.748 67.6613 381.564 69.577Z" stroke="black" stroke-opacity="0.1"/>
<path d="M53.5636 54.577L51.5715 75.2659C51.3871 77.1815 49.198 78.1791 47.6313 77.0616L30.7102 64.9919C29.1434 63.8743 29.374 61.4798 31.1252 60.6817L50.0384 52.0624C51.7896 51.2644 53.7481 52.6613 53.5636 54.577Z" stroke="black" stroke-opacity="0.1"/>
<path d="M98.5636 134.577L96.5715 155.266C96.3871 157.182 94.198 158.179 92.6313 157.062L75.7102 144.992C74.1434 143.874 74.374 141.48 76.1252 140.682L95.0384 132.062C96.7896 131.264 98.7481 132.661 98.5636 134.577Z" stroke="black" stroke-opacity="0.1"/>
<path d="M258.564 69.577L256.572 90.2659C256.387 92.1815 254.198 93.1791 252.631 92.0616L235.71 79.9919C234.143 78.8743 234.374 76.4798 236.125 75.6817L255.038 67.0624C256.79 66.2644 258.748 67.6613 258.564 69.577Z" stroke="black" stroke-opacity="0.1"/>
<rect x="104.5" y="16.5" width="19" height="19" rx="2.5" stroke="black" stroke-opacity="0.1"/>
<rect x="214.5" y="159.5" width="19" height="19" rx="2.5" stroke="black" stroke-opacity="0.1"/>
<rect x="156.5" y="108.5" width="19" height="19" rx="2.5" stroke="black" stroke-opacity="0.1"/>
<rect x="290.5" y="29.5" width="19" height="19" rx="2.5" stroke="black" stroke-opacity="0.1"/>
<rect x="337.5" y="-14.5" width="19" height="19" rx="2.5" stroke="black" stroke-opacity="0.1"/>
<circle cx="183.5" cy="62.5" r="12" stroke="black" stroke-opacity="0.1"/>
<circle cx="236.5" cy="13.5" r="12" stroke="black" stroke-opacity="0.1"/>
<circle cx="302.5" cy="127.5" r="12" stroke="black" stroke-opacity="0.1"/>
<path d="M32.5636 186.577L30.5715 207.266C30.3871 209.182 28.198 210.179 26.6313 209.062L9.71018 196.992C8.14342 195.874 8.37399 193.48 10.1252 192.682L29.0384 184.062C30.7896 183.264 32.7481 184.661 32.5636 186.577Z" stroke="black" stroke-opacity="0.1"/>
<path d="M356.564 274.577L354.572 295.266C354.387 297.182 352.198 298.179 350.631 297.062L333.71 284.992C332.143 283.874 332.374 281.48 334.125 280.682L353.038 272.062C354.79 271.264 356.748 272.661 356.564 274.577Z" stroke="black" stroke-opacity="0.1"/>
<path d="M28.5636 259.577L26.5715 280.266C26.3871 282.182 24.198 283.179 22.6313 282.062L5.71018 269.992C4.14342 268.874 4.37399 266.48 6.12521 265.682L25.0384 257.062C26.7896 256.264 28.7481 257.661 28.5636 259.577Z" stroke="black" stroke-opacity="0.1"/>
<path d="M73.5636 339.577L71.5715 360.266C71.3871 362.182 69.198 363.179 67.6313 362.062L50.7102 349.992C49.1434 348.874 49.374 346.48 51.1252 345.682L70.0384 337.062C71.7896 336.264 73.7481 337.661 73.5636 339.577Z" stroke="black" stroke-opacity="0.1"/>
<path d="M233.564 274.577L231.572 295.266C231.387 297.182 229.198 298.179 227.631 297.062L210.71 284.992C209.143 283.874 209.374 281.48 211.125 280.682L230.038 272.062C231.79 271.264 233.748 272.661 233.564 274.577Z" stroke="black" stroke-opacity="0.1"/>
<rect x="79.5" y="221.5" width="19" height="19" rx="2.5" stroke="black" stroke-opacity="0.1"/>
<rect x="189.5" y="364.5" width="19" height="19" rx="2.5" stroke="black" stroke-opacity="0.1"/>
<rect x="151.5" y="176.5" width="19" height="19" rx="2.5" stroke="black" stroke-opacity="0.1"/>
<rect x="131.5" y="313.5" width="19" height="19" rx="2.5" stroke="black" stroke-opacity="0.1"/>
<rect x="265.5" y="234.5" width="19" height="19" rx="2.5" stroke="black" stroke-opacity="0.1"/>
<rect x="312.5" y="190.5" width="19" height="19" rx="2.5" stroke="black" stroke-opacity="0.1"/>
<circle cx="158.5" cy="267.5" r="12" stroke="black" stroke-opacity="0.1"/>
<circle cx="211.5" cy="218.5" r="12" stroke="black" stroke-opacity="0.1"/>
<circle cx="277.5" cy="332.5" r="12" stroke="black" stroke-opacity="0.1"/>
<path d="M439.564 15.577L437.572 36.2659C437.387 38.1815 435.198 39.1791 433.631 38.0616L416.71 25.9919C415.143 24.8743 415.374 22.4798 417.125 21.6817L436.038 13.0624C437.79 12.2644 439.748 13.6613 439.564 15.577Z" stroke="black" stroke-opacity="0.1"/>
<path d="M763.564 103.577L761.572 124.266C761.387 126.182 759.198 127.179 757.631 126.062L740.71 113.992C739.143 112.874 739.374 110.48 741.125 109.682L760.038 101.062C761.79 100.264 763.748 101.661 763.564 103.577Z" stroke="black" stroke-opacity="0.1"/>
<path d="M435.564 88.577L433.572 109.266C433.387 111.182 431.198 112.179 429.631 111.062L412.71 98.9919C411.143 97.8743 411.374 95.4798 413.125 94.6817L432.038 86.0624C433.79 85.2644 435.748 86.6613 435.564 88.577Z" stroke="black" stroke-opacity="0.1"/>
<path d="M480.564 168.577L478.572 189.266C478.387 191.182 476.198 192.179 474.631 191.062L457.71 178.992C456.143 177.874 456.374 175.48 458.125 174.682L477.038 166.062C478.79 165.264 480.748 166.661 480.564 168.577Z" stroke="black" stroke-opacity="0.1"/>
<path d="M640.564 103.577L638.572 124.266C638.387 126.182 636.198 127.179 634.631 126.062L617.71 113.992C616.143 112.874 616.374 110.48 618.125 109.682L637.038 101.062C638.79 100.264 640.748 101.661 640.564 103.577Z" stroke="black" stroke-opacity="0.1"/>
<rect x="486.5" y="50.5" width="19" height="19" rx="2.5" stroke="black" stroke-opacity="0.1"/>
<rect x="596.5" y="193.5" width="19" height="19" rx="2.5" stroke="black" stroke-opacity="0.1"/>
<rect x="558.5" y="5.5" width="19" height="19" rx="2.5" stroke="black" stroke-opacity="0.1"/>
<rect x="538.5" y="142.5" width="19" height="19" rx="2.5" stroke="black" stroke-opacity="0.1"/>
<rect x="672.5" y="63.5" width="19" height="19" rx="2.5" stroke="black" stroke-opacity="0.1"/>
<rect x="719.5" y="19.5" width="19" height="19" rx="2.5" stroke="black" stroke-opacity="0.1"/>
<circle cx="565.5" cy="96.5" r="12" stroke="black" stroke-opacity="0.1"/>
<circle cx="618.5" cy="47.5" r="12" stroke="black" stroke-opacity="0.1"/>
<circle cx="684.5" cy="161.5" r="12" stroke="black" stroke-opacity="0.1"/>
<path d="M1151.56 59.577L1149.57 80.2659C1149.39 82.1815 1147.2 83.1791 1145.63 82.0616L1128.71 69.9919C1127.14 68.8743 1127.37 66.4798 1129.13 65.6817L1148.04 57.0624C1149.79 56.2644 1151.75 57.6613 1151.56 59.577Z" stroke="black" stroke-opacity="0.1"/>
<path d="M823.564 44.577L821.572 65.2659C821.387 67.1815 819.198 68.1791 817.631 67.0616L800.71 54.9919C799.143 53.8743 799.374 51.4798 801.125 50.6817L820.038 42.0624C821.79 41.2644 823.748 42.6613 823.564 44.577Z" stroke="black" stroke-opacity="0.1"/>
<path d="M868.564 124.577L866.572 145.266C866.387 147.182 864.198 148.179 862.631 147.062L845.71 134.992C844.143 133.874 844.374 131.48 846.125 130.682L865.038 122.062C866.79 121.264 868.748 122.661 868.564 124.577Z" stroke="black" stroke-opacity="0.1"/>
<path d="M1028.56 59.577L1026.57 80.2659C1026.39 82.1815 1024.2 83.1791 1022.63 82.0616L1005.71 69.9919C1004.14 68.8743 1004.37 66.4798 1006.13 65.6817L1025.04 57.0624C1026.79 56.2644 1028.75 57.6613 1028.56 59.577Z" stroke="black" stroke-opacity="0.1"/>
<rect x="874.5" y="6.5" width="19" height="19" rx="2.5" stroke="black" stroke-opacity="0.1"/>
<rect x="984.5" y="149.5" width="19" height="19" rx="2.5" stroke="black" stroke-opacity="0.1"/>
<rect x="926.5" y="98.5" width="19" height="19" rx="2.5" stroke="black" stroke-opacity="0.1"/>
<rect x="1060.5" y="19.5" width="19" height="19" rx="2.5" stroke="black" stroke-opacity="0.1"/>
<circle cx="953.5" cy="52.5" r="12" stroke="black" stroke-opacity="0.1"/>
<circle cx="1006.5" cy="3.5" r="12" stroke="black" stroke-opacity="0.1"/>
<circle cx="1072.5" cy="117.5" r="12" stroke="black" stroke-opacity="0.1"/>
<path d="M1268.42 286.564L1247.73 284.572C1245.82 284.387 1244.82 282.198 1245.94 280.631L1258.01 263.71C1259.13 262.143 1261.52 262.374 1262.32 264.125L1270.94 283.038C1271.74 284.79 1270.34 286.748 1268.42 286.564Z" stroke="black" stroke-opacity="0.1"/>
<path d="M1203.42 3.56362L1182.73 1.57151C1180.82 1.38705 1179.82 -0.801974 1180.94 -2.36874L1193.01 -19.2898C1194.13 -20.8566 1196.52 -20.626 1197.32 -18.8748L1205.94 0.0384059C1206.74 1.78962 1205.34 3.74808 1203.42 3.56362Z" stroke="black" stroke-opacity="0.1"/>
<path d="M1268.42 163.564L1247.73 161.572C1245.82 161.387 1244.82 159.198 1245.94 157.631L1258.01 140.71C1259.13 139.143 1261.52 139.374 1262.32 141.125L1270.94 160.038C1271.74 161.79 1270.34 163.748 1268.42 163.564Z" stroke="black" stroke-opacity="0.1"/>
<rect x="1178.5" y="119.5" width="19" height="19" rx="2.5" transform="rotate(90 1178.5 119.5)" stroke="black" stroke-opacity="0.1"/>
<rect x="1229.5" y="61.5" width="19" height="19" rx="2.5" transform="rotate(90 1229.5 61.5)" stroke="black" stroke-opacity="0.1"/>
<circle cx="1275.5" cy="88.5" r="12" transform="rotate(90 1275.5 88.5)" stroke="black" stroke-opacity="0.1"/>
<circle cx="1210.5" cy="207.5" r="12" transform="rotate(90 1210.5 207.5)" stroke="black" stroke-opacity="0.1"/>
<path d="M1122.84 348.998L1104.57 339.081C1102.88 338.162 1102.82 335.757 1104.46 334.752L1122.18 323.892C1123.82 322.886 1125.94 324.034 1125.99 325.958L1126.53 346.736C1126.58 348.659 1124.53 349.916 1122.84 348.998Z" stroke="black" stroke-opacity="0.1"/>
<path d="M1170.9 235.776L1152.63 225.858C1150.94 224.94 1150.88 222.535 1152.52 221.53L1170.24 210.67C1171.88 209.664 1174 210.812 1174.05 212.736L1174.59 233.513C1174.64 235.437 1172.59 236.694 1170.9 235.776Z" stroke="black" stroke-opacity="0.1"/>
<rect x="1105.34" y="160.079" width="19" height="19" rx="2.5" transform="rotate(113 1105.34 160.079)" stroke="black" stroke-opacity="0.1"/>
<circle cx="1100.41" cy="253.587" r="12" transform="rotate(113 1100.41 253.587)" stroke="black" stroke-opacity="0.1"/>
<path d="M1032.56 325.577L1030.57 346.266C1030.39 348.182 1028.2 349.179 1026.63 348.062L1009.71 335.992C1008.14 334.874 1008.37 332.48 1010.13 331.682L1029.04 323.062C1030.79 322.264 1032.75 323.661 1032.56 325.577Z" stroke="black" stroke-opacity="0.1"/>
<path d="M1028.56 398.577L1026.57 419.266C1026.39 421.182 1024.2 422.179 1022.63 421.062L1005.71 408.992C1004.14 407.874 1004.37 405.48 1006.13 404.682L1025.04 396.062C1026.79 395.264 1028.75 396.661 1028.56 398.577Z" stroke="black" stroke-opacity="0.1"/>
<path d="M1073.56 478.577L1071.57 499.266C1071.39 501.182 1069.2 502.179 1067.63 501.062L1050.71 488.992C1049.14 487.874 1049.37 485.48 1051.13 484.682L1070.04 476.062C1071.79 475.264 1073.75 476.661 1073.56 478.577Z" stroke="black" stroke-opacity="0.1"/>
<path d="M1233.56 413.577L1231.57 434.266C1231.39 436.182 1229.2 437.179 1227.63 436.062L1210.71 423.992C1209.14 422.874 1209.37 420.48 1211.13 419.682L1230.04 411.062C1231.79 410.264 1233.75 411.661 1233.56 413.577Z" stroke="black" stroke-opacity="0.1"/>
<rect x="1079.5" y="360.5" width="19" height="19" rx="2.5" stroke="black" stroke-opacity="0.1"/>
<rect x="1189.5" y="503.5" width="19" height="19" rx="2.5" stroke="black" stroke-opacity="0.1"/>
<rect x="1151.5" y="315.5" width="19" height="19" rx="2.5" stroke="black" stroke-opacity="0.1"/>
<rect x="1131.5" y="452.5" width="19" height="19" rx="2.5" stroke="black" stroke-opacity="0.1"/>
<rect x="1265.5" y="373.5" width="19" height="19" rx="2.5" stroke="black" stroke-opacity="0.1"/>
<circle cx="1158.5" cy="406.5" r="12" stroke="black" stroke-opacity="0.1"/>
<circle cx="1211.5" cy="357.5" r="12" stroke="black" stroke-opacity="0.1"/>
<circle cx="1277.5" cy="471.5" r="12" stroke="black" stroke-opacity="0.1"/>
<path d="M299.564 510.577L297.572 531.266C297.387 533.182 295.198 534.179 293.631 533.062L276.71 520.992C275.143 519.874 275.374 517.48 277.125 516.682L296.038 508.062C297.79 507.264 299.748 508.661 299.564 510.577Z" stroke="black" stroke-opacity="0.1"/>
<path d="M176.564 510.577L174.572 531.266C174.387 533.182 172.198 534.179 170.631 533.062L153.71 520.992C152.143 519.874 152.374 517.48 154.125 516.682L173.038 508.062C174.79 507.264 176.748 508.661 176.564 510.577Z" stroke="black" stroke-opacity="0.1"/>
<rect x="22.5" y="457.5" width="19" height="19" rx="2.5" stroke="black" stroke-opacity="0.1"/>
<rect x="94.5" y="412.5" width="19" height="19" rx="2.5" stroke="black" stroke-opacity="0.1"/>
<rect x="208.5" y="470.5" width="19" height="19" rx="2.5" stroke="black" stroke-opacity="0.1"/>
<rect x="255.5" y="426.5" width="19" height="19" rx="2.5" stroke="black" stroke-opacity="0.1"/>
<circle cx="101.5" cy="503.5" r="12" stroke="black" stroke-opacity="0.1"/>
<circle cx="154.5" cy="454.5" r="12" stroke="black" stroke-opacity="0.1"/>
<path d="M502.236 134.681L483.97 144.599C482.278 145.517 480.227 144.26 480.278 142.336L480.822 121.559C480.872 119.635 482.986 118.487 484.627 119.493L502.349 130.353C503.99 131.358 503.927 133.763 502.236 134.681Z" stroke="black" stroke-opacity="0.1"/>
<path d="M610.459 452.498L592.193 462.416C590.502 463.334 588.45 462.077 588.501 460.153L589.045 439.376C589.095 437.452 591.209 436.304 592.85 437.31L610.572 448.17C612.213 449.175 612.15 451.58 610.459 452.498Z" stroke="black" stroke-opacity="0.1"/>
<path d="M439.479 172.186L421.213 182.104C419.522 183.022 417.471 181.765 417.521 179.841L418.065 159.064C418.116 157.14 420.23 155.992 421.871 156.998L439.592 167.858C441.233 168.863 441.17 171.268 439.479 172.186Z" stroke="black" stroke-opacity="0.1"/>
<path d="M398.32 254.228L380.054 264.146C378.363 265.064 376.312 263.807 376.362 261.883L376.906 241.106C376.956 239.182 379.07 238.034 380.711 239.04L398.433 249.9C400.074 250.905 400.011 253.31 398.32 254.228Z" stroke="black" stroke-opacity="0.1"/>
<path d="M541.678 350.527L523.412 360.444C521.721 361.363 519.67 360.106 519.72 358.182L520.264 337.404C520.315 335.48 522.429 334.333 524.07 335.338L541.791 346.198C543.432 347.204 543.369 349.608 541.678 350.527Z" stroke="black" stroke-opacity="0.1"/>
<rect x="499.53" y="193.122" width="19" height="19" rx="2.5" transform="rotate(56 499.53 193.122)" stroke="black" stroke-opacity="0.1"/>
<rect x="442.488" y="364.281" width="19" height="19" rx="2.5" transform="rotate(56 442.488 364.281)" stroke="black" stroke-opacity="0.1"/>
<rect x="577.098" y="227.649" width="19" height="19" rx="2.5" transform="rotate(56 577.098 227.649)" stroke="black" stroke-opacity="0.1"/>
<rect x="452.336" y="287.678" width="19" height="19" rx="2.5" transform="rotate(56 452.336 287.678)" stroke="black" stroke-opacity="0.1"/>
<rect x="592.762" y="354.592" width="19" height="19" rx="2.5" transform="rotate(56 592.762 354.592)" stroke="black" stroke-opacity="0.1"/>
<rect x="655.522" y="368.953" width="19" height="19" rx="2.5" transform="rotate(56 655.522 368.953)" stroke="black" stroke-opacity="0.1"/>
<circle cx="505.57" cy="284.339" r="12" transform="rotate(56 505.57 284.339)" stroke="black" stroke-opacity="0.1"/>
<circle cx="575.83" cy="300.877" r="12" transform="rotate(56 575.83 300.877)" stroke="black" stroke-opacity="0.1"/>
<circle cx="518.227" cy="419.342" r="12" transform="rotate(56 518.227 419.342)" stroke="black" stroke-opacity="0.1"/>
<path d="M678.443 415.283L677.717 436.055C677.65 437.978 675.526 439.108 673.894 438.088L656.268 427.074C654.636 426.054 654.72 423.65 656.419 422.746L674.771 412.988C676.47 412.085 678.51 413.36 678.443 415.283Z" stroke="black" stroke-opacity="0.1"/>
<path d="M1007.21 483.339L1006.49 504.111C1006.42 506.034 1004.29 507.164 1002.66 506.144L985.036 495.13C983.403 494.11 983.487 491.706 985.187 490.802L1003.54 481.044C1005.24 480.141 1007.28 481.416 1007.21 483.339Z" stroke="black" stroke-opacity="0.1"/>
<path d="M678.907 488.391L678.181 509.163C678.114 511.086 675.99 512.216 674.358 511.196L656.732 500.182C655.1 499.162 655.184 496.758 656.883 495.854L675.235 486.096C676.934 485.193 678.974 486.468 678.907 488.391Z" stroke="black" stroke-opacity="0.1"/>
<path d="M884.44 490.848L883.715 511.62C883.647 513.543 881.523 514.673 879.891 513.653L862.265 502.639C860.633 501.619 860.717 499.215 862.416 498.311L880.768 488.553C882.467 487.65 884.507 488.925 884.44 490.848Z" stroke="black" stroke-opacity="0.1"/>
<rect x="727.424" y="447.276" width="19" height="19" rx="2.5" transform="rotate(-3.5 727.424 447.276)" stroke="black" stroke-opacity="0.1"/>
<rect x="796.542" y="397.964" width="19" height="19" rx="2.5" transform="rotate(-3.5 796.542 397.964)" stroke="black" stroke-opacity="0.1"/>
<rect x="913.87" y="448.896" width="19" height="19" rx="2.5" transform="rotate(-3.5 913.87 448.896)" stroke="black" stroke-opacity="0.1"/>
<rect x="958.096" y="402.109" width="19" height="19" rx="2.5" transform="rotate(-3.5 958.096 402.109)" stroke="black" stroke-opacity="0.1"/>
<circle cx="809.084" cy="488.367" r="12" transform="rotate(-3.5 809.084 488.367)" stroke="black" stroke-opacity="0.1"/>
<circle cx="858.994" cy="436.223" r="12" transform="rotate(-3.5 858.994 436.223)" stroke="black" stroke-opacity="0.1"/>
<path d="M574.338 527.146L556.338 516.753C554.672 515.791 554.672 513.386 556.338 512.423L574.338 502.031C576.005 501.069 578.088 502.272 578.088 504.196L578.088 524.981C578.088 526.905 576.005 528.108 574.338 527.146Z" stroke="black" stroke-opacity="0.1"/>
<path d="M488.338 470.146L470.338 459.753C468.672 458.791 468.672 456.386 470.338 455.423L488.338 445.031C490.005 444.069 492.088 445.272 492.088 447.196L492.088 467.981C492.088 469.905 490.005 471.108 488.338 470.146Z" stroke="black" stroke-opacity="0.1"/>
<path d="M365.338 378.146L347.338 367.753C345.672 366.791 345.672 364.386 347.338 363.423L365.338 353.031C367.005 352.069 369.088 353.272 369.088 355.196L369.088 375.981C369.088 377.905 367.005 379.108 365.338 378.146Z" stroke="black" stroke-opacity="0.1"/>
<rect x="432.908" y="419.131" width="19" height="19" rx="2.5" transform="rotate(114.5 432.908 419.131)" stroke="black" stroke-opacity="0.1"/>
<rect x="443.998" y="503.309" width="19" height="19" rx="2.5" transform="rotate(114.5 443.998 503.309)" stroke="black" stroke-opacity="0.1"/>
<rect x="327.627" y="428.297" width="19" height="19" rx="2.5" transform="rotate(114.5 327.627 428.297)" stroke="black" stroke-opacity="0.1"/>
<circle cx="358.289" cy="471.942" r="12" transform="rotate(114.5 358.289 471.942)" stroke="black" stroke-opacity="0.1"/>
<path d="M683.564 187.577L681.572 208.266C681.387 210.182 679.198 211.179 677.631 210.062L660.71 197.992C659.143 196.874 659.374 194.48 661.125 193.682L680.038 185.062C681.79 184.264 683.748 185.661 683.564 187.577Z" stroke="black" stroke-opacity="0.1"/>
<path d="M1007.56 275.577L1005.57 296.266C1005.39 298.182 1003.2 299.179 1001.63 298.062L984.71 285.992C983.143 284.874 983.374 282.48 985.125 281.682L1004.04 273.062C1005.79 272.264 1007.75 273.661 1007.56 275.577Z" stroke="black" stroke-opacity="0.1"/>
<path d="M679.564 260.577L677.572 281.266C677.387 283.182 675.198 284.179 673.631 283.062L656.71 270.992C655.143 269.874 655.374 267.48 657.125 266.682L676.038 258.062C677.79 257.264 679.748 258.661 679.564 260.577Z" stroke="black" stroke-opacity="0.1"/>
<path d="M724.564 340.577L722.572 361.266C722.387 363.182 720.198 364.179 718.631 363.062L701.71 350.992C700.143 349.874 700.374 347.48 702.125 346.682L721.038 338.062C722.79 337.264 724.748 338.661 724.564 340.577Z" stroke="black" stroke-opacity="0.1"/>
<path d="M884.564 275.577L882.572 296.266C882.387 298.182 880.198 299.179 878.631 298.062L861.71 285.992C860.143 284.874 860.374 282.48 862.125 281.682L881.038 273.062C882.79 272.264 884.748 273.661 884.564 275.577Z" stroke="black" stroke-opacity="0.1"/>
<rect x="730.5" y="222.5" width="19" height="19" rx="2.5" stroke="black" stroke-opacity="0.1"/>
<rect x="840.5" y="365.5" width="19" height="19" rx="2.5" stroke="black" stroke-opacity="0.1"/>
<rect x="802.5" y="177.5" width="19" height="19" rx="2.5" stroke="black" stroke-opacity="0.1"/>
<rect x="782.5" y="314.5" width="19" height="19" rx="2.5" stroke="black" stroke-opacity="0.1"/>
<rect x="916.5" y="235.5" width="19" height="19" rx="2.5" stroke="black" stroke-opacity="0.1"/>
<rect x="963.5" y="191.5" width="19" height="19" rx="2.5" stroke="black" stroke-opacity="0.1"/>
<circle cx="809.5" cy="268.5" r="12" stroke="black" stroke-opacity="0.1"/>
<circle cx="862.5" cy="219.5" r="12" stroke="black" stroke-opacity="0.1"/>
<circle cx="928.5" cy="333.5" r="12" stroke="black" stroke-opacity="0.1"/>
</svg>
